<mxfile host="app.diagrams.net" modified="2024-01-15T20:06:33.931Z" agent="Mozilla/5.0 (Macintosh; Intel Mac OS X 10_15_7) AppleWebKit/537.36 (KHTML, like Gecko) Chrome/119.0.0.0 Safari/537.36" etag="e35Mj_2ChOo3-S6Jpzc3" version="22.1.18" type="github">
  <diagram id="R2lEEEUBdFMjLlhIrx00" name="Page-1">
    <mxGraphModel dx="1839" dy="1625" grid="1" gridSize="10" guides="1" tooltips="1" connect="1" arrows="1" fold="1" page="1" pageScale="1" pageWidth="850" pageHeight="1100" math="0" shadow="0" extFonts="Permanent Marker^https://fonts.googleapis.com/css?family=Permanent+Marker">
      <root>
        <mxCell id="0" />
        <mxCell id="1" parent="0" />
        <mxCell id="s-wujuHhtaPkNqWGCWmi-6" style="edgeStyle=orthogonalEdgeStyle;rounded=0;orthogonalLoop=1;jettySize=auto;html=1;entryX=0;entryY=0.5;entryDx=0;entryDy=0;" parent="1" source="s-wujuHhtaPkNqWGCWmi-2" target="s-wujuHhtaPkNqWGCWmi-5" edge="1">
          <mxGeometry relative="1" as="geometry" />
        </mxCell>
        <mxCell id="s-wujuHhtaPkNqWGCWmi-42" style="edgeStyle=orthogonalEdgeStyle;rounded=0;orthogonalLoop=1;jettySize=auto;html=1;entryX=0.75;entryY=0;entryDx=0;entryDy=0;" parent="1" source="s-wujuHhtaPkNqWGCWmi-2" target="s-wujuHhtaPkNqWGCWmi-13" edge="1">
          <mxGeometry relative="1" as="geometry">
            <Array as="points">
              <mxPoint x="235" y="-830" />
            </Array>
          </mxGeometry>
        </mxCell>
        <mxCell id="s-wujuHhtaPkNqWGCWmi-43" style="edgeStyle=orthogonalEdgeStyle;rounded=0;orthogonalLoop=1;jettySize=auto;html=1;" parent="1" source="s-wujuHhtaPkNqWGCWmi-2" target="s-wujuHhtaPkNqWGCWmi-14" edge="1">
          <mxGeometry relative="1" as="geometry" />
        </mxCell>
        <mxCell id="s-wujuHhtaPkNqWGCWmi-44" style="edgeStyle=orthogonalEdgeStyle;rounded=0;orthogonalLoop=1;jettySize=auto;html=1;" parent="1" source="s-wujuHhtaPkNqWGCWmi-2" target="s-wujuHhtaPkNqWGCWmi-12" edge="1">
          <mxGeometry relative="1" as="geometry" />
        </mxCell>
        <mxCell id="s-wujuHhtaPkNqWGCWmi-2" value="contrata" style="shape=rhombus;perimeter=rhombusPerimeter;whiteSpace=wrap;html=1;align=center;" parent="1" vertex="1">
          <mxGeometry x="410" y="-910" width="120" height="100" as="geometry" />
        </mxCell>
        <mxCell id="s-wujuHhtaPkNqWGCWmi-25" style="edgeStyle=orthogonalEdgeStyle;rounded=0;orthogonalLoop=1;jettySize=auto;html=1;" parent="1" source="s-wujuHhtaPkNqWGCWmi-4" edge="1">
          <mxGeometry relative="1" as="geometry">
            <mxPoint x="90" y="-620" as="targetPoint" />
          </mxGeometry>
        </mxCell>
        <mxCell id="s-wujuHhtaPkNqWGCWmi-46" style="edgeStyle=orthogonalEdgeStyle;rounded=0;orthogonalLoop=1;jettySize=auto;html=1;" parent="1" source="s-wujuHhtaPkNqWGCWmi-4" target="s-wujuHhtaPkNqWGCWmi-45" edge="1">
          <mxGeometry relative="1" as="geometry">
            <Array as="points">
              <mxPoint x="250" y="-960" />
              <mxPoint x="250" y="-960" />
            </Array>
          </mxGeometry>
        </mxCell>
        <mxCell id="s-wujuHhtaPkNqWGCWmi-4" value="USUARIO" style="whiteSpace=wrap;html=1;align=center;" parent="1" vertex="1">
          <mxGeometry x="160" y="-880" width="100" height="40" as="geometry" />
        </mxCell>
        <mxCell id="s-wujuHhtaPkNqWGCWmi-29" style="edgeStyle=orthogonalEdgeStyle;rounded=0;orthogonalLoop=1;jettySize=auto;html=1;entryX=0.5;entryY=0;entryDx=0;entryDy=0;" parent="1" source="s-wujuHhtaPkNqWGCWmi-5" target="s-wujuHhtaPkNqWGCWmi-28" edge="1">
          <mxGeometry relative="1" as="geometry" />
        </mxCell>
        <mxCell id="s-wujuHhtaPkNqWGCWmi-5" value="PT" style="whiteSpace=wrap;html=1;align=center;" parent="1" vertex="1">
          <mxGeometry x="680" y="-880" width="100" height="40" as="geometry" />
        </mxCell>
        <mxCell id="s-wujuHhtaPkNqWGCWmi-10" style="edgeStyle=orthogonalEdgeStyle;rounded=0;orthogonalLoop=1;jettySize=auto;html=1;entryX=0;entryY=0.5;entryDx=0;entryDy=0;" parent="1" target="s-wujuHhtaPkNqWGCWmi-2" edge="1">
          <mxGeometry relative="1" as="geometry">
            <mxPoint x="260" y="-864" as="sourcePoint" />
            <mxPoint x="378.03999999999996" y="-855.85" as="targetPoint" />
            <Array as="points">
              <mxPoint x="370" y="-864" />
              <mxPoint x="370" y="-860" />
            </Array>
          </mxGeometry>
        </mxCell>
        <mxCell id="s-wujuHhtaPkNqWGCWmi-35" style="edgeStyle=orthogonalEdgeStyle;rounded=0;orthogonalLoop=1;jettySize=auto;html=1;entryX=0.5;entryY=0;entryDx=0;entryDy=0;" parent="1" source="s-wujuHhtaPkNqWGCWmi-11" target="s-wujuHhtaPkNqWGCWmi-32" edge="1">
          <mxGeometry relative="1" as="geometry" />
        </mxCell>
        <mxCell id="s-wujuHhtaPkNqWGCWmi-11" value="VEHÍCULO" style="whiteSpace=wrap;html=1;align=center;" parent="1" vertex="1">
          <mxGeometry x="680" y="-680" width="100" height="40" as="geometry" />
        </mxCell>
        <mxCell id="s-wujuHhtaPkNqWGCWmi-34" style="edgeStyle=orthogonalEdgeStyle;rounded=0;orthogonalLoop=1;jettySize=auto;html=1;entryX=0.5;entryY=0;entryDx=0;entryDy=0;" parent="1" source="s-wujuHhtaPkNqWGCWmi-12" target="s-wujuHhtaPkNqWGCWmi-32" edge="1">
          <mxGeometry relative="1" as="geometry" />
        </mxCell>
        <mxCell id="s-wujuHhtaPkNqWGCWmi-12" value="TRAYECTO" style="whiteSpace=wrap;html=1;align=center;" parent="1" vertex="1">
          <mxGeometry x="490" y="-710" width="100" height="40" as="geometry" />
        </mxCell>
        <mxCell id="s-wujuHhtaPkNqWGCWmi-33" style="edgeStyle=orthogonalEdgeStyle;rounded=0;orthogonalLoop=1;jettySize=auto;html=1;" parent="1" source="s-wujuHhtaPkNqWGCWmi-13" target="s-wujuHhtaPkNqWGCWmi-32" edge="1">
          <mxGeometry relative="1" as="geometry">
            <Array as="points">
              <mxPoint x="210" y="-640" />
              <mxPoint x="570" y="-640" />
            </Array>
          </mxGeometry>
        </mxCell>
        <mxCell id="s-wujuHhtaPkNqWGCWmi-13" value="MERCANCIA" style="whiteSpace=wrap;html=1;align=center;" parent="1" vertex="1">
          <mxGeometry x="160" y="-690" width="100" height="40" as="geometry" />
        </mxCell>
        <mxCell id="s-wujuHhtaPkNqWGCWmi-14" value="PAGO" style="whiteSpace=wrap;html=1;align=center;" parent="1" vertex="1">
          <mxGeometry x="350" y="-710" width="100" height="40" as="geometry" />
        </mxCell>
        <mxCell id="s-wujuHhtaPkNqWGCWmi-15" value="TARIFAS" style="whiteSpace=wrap;html=1;align=center;" parent="1" vertex="1">
          <mxGeometry x="530" y="-540" width="100" height="40" as="geometry" />
        </mxCell>
        <mxCell id="s-wujuHhtaPkNqWGCWmi-39" style="edgeStyle=orthogonalEdgeStyle;rounded=0;orthogonalLoop=1;jettySize=auto;html=1;entryX=0.5;entryY=0;entryDx=0;entryDy=0;" parent="1" source="s-wujuHhtaPkNqWGCWmi-16" target="s-wujuHhtaPkNqWGCWmi-38" edge="1">
          <mxGeometry relative="1" as="geometry" />
        </mxCell>
        <mxCell id="s-wujuHhtaPkNqWGCWmi-16" value="POSICIONAMIENTO" style="whiteSpace=wrap;html=1;align=center;" parent="1" vertex="1">
          <mxGeometry x="230" y="-610" width="130" height="40" as="geometry" />
        </mxCell>
        <mxCell id="s-wujuHhtaPkNqWGCWmi-41" style="edgeStyle=orthogonalEdgeStyle;rounded=0;orthogonalLoop=1;jettySize=auto;html=1;entryX=0;entryY=0.5;entryDx=0;entryDy=0;" parent="1" source="s-wujuHhtaPkNqWGCWmi-17" target="s-wujuHhtaPkNqWGCWmi-32" edge="1">
          <mxGeometry relative="1" as="geometry" />
        </mxCell>
        <mxCell id="s-wujuHhtaPkNqWGCWmi-17" value="PORCENTAJES" style="whiteSpace=wrap;html=1;align=center;" parent="1" vertex="1">
          <mxGeometry x="250" y="-460" width="100" height="40" as="geometry" />
        </mxCell>
        <mxCell id="s-wujuHhtaPkNqWGCWmi-26" style="edgeStyle=orthogonalEdgeStyle;rounded=0;orthogonalLoop=1;jettySize=auto;html=1;" parent="1" source="s-wujuHhtaPkNqWGCWmi-24" target="s-wujuHhtaPkNqWGCWmi-16" edge="1">
          <mxGeometry relative="1" as="geometry" />
        </mxCell>
        <mxCell id="s-wujuHhtaPkNqWGCWmi-24" value="evalua" style="shape=rhombus;perimeter=rhombusPerimeter;whiteSpace=wrap;html=1;align=center;" parent="1" vertex="1">
          <mxGeometry x="30" y="-620" width="120" height="60" as="geometry" />
        </mxCell>
        <mxCell id="s-wujuHhtaPkNqWGCWmi-30" style="edgeStyle=orthogonalEdgeStyle;rounded=0;orthogonalLoop=1;jettySize=auto;html=1;" parent="1" source="s-wujuHhtaPkNqWGCWmi-28" target="s-wujuHhtaPkNqWGCWmi-11" edge="1">
          <mxGeometry relative="1" as="geometry" />
        </mxCell>
        <mxCell id="s-wujuHhtaPkNqWGCWmi-28" value="utiliza" style="shape=rhombus;perimeter=rhombusPerimeter;whiteSpace=wrap;html=1;align=center;" parent="1" vertex="1">
          <mxGeometry x="670" y="-790" width="120" height="60" as="geometry" />
        </mxCell>
        <mxCell id="s-wujuHhtaPkNqWGCWmi-32" value="calcula" style="shape=rhombus;perimeter=rhombusPerimeter;whiteSpace=wrap;html=1;align=center;" parent="1" vertex="1">
          <mxGeometry x="510" y="-630" width="120" height="60" as="geometry" />
        </mxCell>
        <mxCell id="s-wujuHhtaPkNqWGCWmi-36" style="edgeStyle=orthogonalEdgeStyle;rounded=0;orthogonalLoop=1;jettySize=auto;html=1;entryX=0.4;entryY=0;entryDx=0;entryDy=0;entryPerimeter=0;" parent="1" source="s-wujuHhtaPkNqWGCWmi-32" target="s-wujuHhtaPkNqWGCWmi-15" edge="1">
          <mxGeometry relative="1" as="geometry" />
        </mxCell>
        <mxCell id="s-wujuHhtaPkNqWGCWmi-40" style="edgeStyle=orthogonalEdgeStyle;rounded=0;orthogonalLoop=1;jettySize=auto;html=1;" parent="1" source="s-wujuHhtaPkNqWGCWmi-38" target="s-wujuHhtaPkNqWGCWmi-17" edge="1">
          <mxGeometry relative="1" as="geometry" />
        </mxCell>
        <mxCell id="s-wujuHhtaPkNqWGCWmi-38" value="calcula" style="shape=rhombus;perimeter=rhombusPerimeter;whiteSpace=wrap;html=1;align=center;" parent="1" vertex="1">
          <mxGeometry x="235" y="-550" width="120" height="60" as="geometry" />
        </mxCell>
        <mxCell id="s-wujuHhtaPkNqWGCWmi-45" value="USUARIO COTIZACIÓN" style="whiteSpace=wrap;html=1;align=center;" parent="1" vertex="1">
          <mxGeometry x="160" y="-1060" width="100" height="40" as="geometry" />
        </mxCell>
        <mxCell id="s-wujuHhtaPkNqWGCWmi-47" style="edgeStyle=orthogonalEdgeStyle;rounded=0;orthogonalLoop=1;jettySize=auto;html=1;entryX=0.11;entryY=-0.01;entryDx=0;entryDy=0;entryPerimeter=0;" parent="1" source="s-wujuHhtaPkNqWGCWmi-45" target="s-wujuHhtaPkNqWGCWmi-4" edge="1">
          <mxGeometry relative="1" as="geometry">
            <Array as="points">
              <mxPoint x="180" y="-1020" />
              <mxPoint x="180" y="-1020" />
            </Array>
          </mxGeometry>
        </mxCell>
        <mxCell id="q2-BK6-ns6nN9b0wE0lk-15" style="edgeStyle=orthogonalEdgeStyle;rounded=0;orthogonalLoop=1;jettySize=auto;html=1;exitX=0.5;exitY=1;exitDx=0;exitDy=0;entryX=0.5;entryY=0;entryDx=0;entryDy=0;" edge="1" parent="1" source="q2-BK6-ns6nN9b0wE0lk-1" target="q2-BK6-ns6nN9b0wE0lk-4">
          <mxGeometry relative="1" as="geometry" />
        </mxCell>
        <mxCell id="q2-BK6-ns6nN9b0wE0lk-1" value="USUARIO" style="rounded=0;whiteSpace=wrap;html=1;" vertex="1" parent="1">
          <mxGeometry x="-780" y="-380" width="120" height="60" as="geometry" />
        </mxCell>
        <mxCell id="q2-BK6-ns6nN9b0wE0lk-2" value="PT" style="rounded=0;whiteSpace=wrap;html=1;" vertex="1" parent="1">
          <mxGeometry x="-250" y="-380" width="120" height="60" as="geometry" />
        </mxCell>
        <mxCell id="q2-BK6-ns6nN9b0wE0lk-27" style="edgeStyle=orthogonalEdgeStyle;rounded=0;orthogonalLoop=1;jettySize=auto;html=1;exitX=0.5;exitY=1;exitDx=0;exitDy=0;entryX=0.5;entryY=0;entryDx=0;entryDy=0;" edge="1" parent="1" source="q2-BK6-ns6nN9b0wE0lk-3" target="q2-BK6-ns6nN9b0wE0lk-8">
          <mxGeometry relative="1" as="geometry" />
        </mxCell>
        <mxCell id="q2-BK6-ns6nN9b0wE0lk-3" value="ADMINISTRADOR" style="rounded=0;whiteSpace=wrap;html=1;" vertex="1" parent="1">
          <mxGeometry x="-510" y="-310" width="120" height="60" as="geometry" />
        </mxCell>
        <mxCell id="q2-BK6-ns6nN9b0wE0lk-19" style="edgeStyle=orthogonalEdgeStyle;rounded=0;orthogonalLoop=1;jettySize=auto;html=1;exitX=1;exitY=0.5;exitDx=0;exitDy=0;entryX=0;entryY=0.5;entryDx=0;entryDy=0;" edge="1" parent="1" source="q2-BK6-ns6nN9b0wE0lk-4" target="q2-BK6-ns6nN9b0wE0lk-3">
          <mxGeometry relative="1" as="geometry" />
        </mxCell>
        <mxCell id="q2-BK6-ns6nN9b0wE0lk-4" value="REGISTRO" style="rhombus;whiteSpace=wrap;html=1;" vertex="1" parent="1">
          <mxGeometry x="-760" y="-230" width="80" height="80" as="geometry" />
        </mxCell>
        <mxCell id="q2-BK6-ns6nN9b0wE0lk-28" style="edgeStyle=orthogonalEdgeStyle;rounded=0;orthogonalLoop=1;jettySize=auto;html=1;exitX=0.5;exitY=1;exitDx=0;exitDy=0;entryX=1;entryY=0.75;entryDx=0;entryDy=0;" edge="1" parent="1" source="q2-BK6-ns6nN9b0wE0lk-8" target="q2-BK6-ns6nN9b0wE0lk-11">
          <mxGeometry relative="1" as="geometry" />
        </mxCell>
        <mxCell id="q2-BK6-ns6nN9b0wE0lk-29" style="edgeStyle=orthogonalEdgeStyle;rounded=0;orthogonalLoop=1;jettySize=auto;html=1;exitX=0.5;exitY=1;exitDx=0;exitDy=0;entryX=0;entryY=0.75;entryDx=0;entryDy=0;" edge="1" parent="1" source="q2-BK6-ns6nN9b0wE0lk-8" target="q2-BK6-ns6nN9b0wE0lk-12">
          <mxGeometry relative="1" as="geometry" />
        </mxCell>
        <mxCell id="q2-BK6-ns6nN9b0wE0lk-8" value="AUTENTICACIÖN" style="rounded=0;whiteSpace=wrap;html=1;" vertex="1" parent="1">
          <mxGeometry x="-510" y="-220" width="120" height="60" as="geometry" />
        </mxCell>
        <mxCell id="q2-BK6-ns6nN9b0wE0lk-23" style="edgeStyle=orthogonalEdgeStyle;rounded=0;orthogonalLoop=1;jettySize=auto;html=1;exitX=0.5;exitY=1;exitDx=0;exitDy=0;" edge="1" parent="1" source="q2-BK6-ns6nN9b0wE0lk-11" target="q2-BK6-ns6nN9b0wE0lk-22">
          <mxGeometry relative="1" as="geometry" />
        </mxCell>
        <mxCell id="q2-BK6-ns6nN9b0wE0lk-11" value="ACEPTADO" style="whiteSpace=wrap;html=1;align=center;" vertex="1" parent="1">
          <mxGeometry x="-640" y="-150" width="100" height="40" as="geometry" />
        </mxCell>
        <mxCell id="q2-BK6-ns6nN9b0wE0lk-21" style="edgeStyle=orthogonalEdgeStyle;rounded=0;orthogonalLoop=1;jettySize=auto;html=1;exitX=0.5;exitY=1;exitDx=0;exitDy=0;entryX=0.5;entryY=0;entryDx=0;entryDy=0;" edge="1" parent="1" source="q2-BK6-ns6nN9b0wE0lk-12" target="q2-BK6-ns6nN9b0wE0lk-20">
          <mxGeometry relative="1" as="geometry" />
        </mxCell>
        <mxCell id="q2-BK6-ns6nN9b0wE0lk-12" value="DENEGADO" style="whiteSpace=wrap;html=1;align=center;" vertex="1" parent="1">
          <mxGeometry x="-360" y="-150" width="100" height="40" as="geometry" />
        </mxCell>
        <mxCell id="q2-BK6-ns6nN9b0wE0lk-18" style="edgeStyle=orthogonalEdgeStyle;rounded=0;orthogonalLoop=1;jettySize=auto;html=1;exitX=0;exitY=0.5;exitDx=0;exitDy=0;entryX=1;entryY=0.5;entryDx=0;entryDy=0;" edge="1" parent="1" source="q2-BK6-ns6nN9b0wE0lk-16" target="q2-BK6-ns6nN9b0wE0lk-3">
          <mxGeometry relative="1" as="geometry" />
        </mxCell>
        <mxCell id="q2-BK6-ns6nN9b0wE0lk-16" value="REGISTRO" style="rhombus;whiteSpace=wrap;html=1;" vertex="1" parent="1">
          <mxGeometry x="-230" y="-230" width="80" height="80" as="geometry" />
        </mxCell>
        <mxCell id="q2-BK6-ns6nN9b0wE0lk-17" style="edgeStyle=orthogonalEdgeStyle;rounded=0;orthogonalLoop=1;jettySize=auto;html=1;exitX=0.5;exitY=1;exitDx=0;exitDy=0;entryX=0.379;entryY=0.161;entryDx=0;entryDy=0;entryPerimeter=0;" edge="1" parent="1" source="q2-BK6-ns6nN9b0wE0lk-2" target="q2-BK6-ns6nN9b0wE0lk-16">
          <mxGeometry relative="1" as="geometry" />
        </mxCell>
        <mxCell id="q2-BK6-ns6nN9b0wE0lk-20" value="REPETIR PROCESO" style="rounded=0;whiteSpace=wrap;html=1;" vertex="1" parent="1">
          <mxGeometry x="-370" y="-30" width="120" height="60" as="geometry" />
        </mxCell>
        <mxCell id="q2-BK6-ns6nN9b0wE0lk-58" style="edgeStyle=orthogonalEdgeStyle;rounded=0;orthogonalLoop=1;jettySize=auto;html=1;exitX=0.5;exitY=1;exitDx=0;exitDy=0;entryX=1;entryY=0;entryDx=0;entryDy=0;" edge="1" parent="1" source="q2-BK6-ns6nN9b0wE0lk-22" target="q2-BK6-ns6nN9b0wE0lk-33">
          <mxGeometry relative="1" as="geometry" />
        </mxCell>
        <mxCell id="q2-BK6-ns6nN9b0wE0lk-22" value="HACER USO APP" style="rounded=0;whiteSpace=wrap;html=1;" vertex="1" parent="1">
          <mxGeometry x="-650" y="-30" width="120" height="60" as="geometry" />
        </mxCell>
        <mxCell id="q2-BK6-ns6nN9b0wE0lk-61" style="edgeStyle=orthogonalEdgeStyle;rounded=0;orthogonalLoop=1;jettySize=auto;html=1;exitX=0.5;exitY=1;exitDx=0;exitDy=0;entryX=0;entryY=0.75;entryDx=0;entryDy=0;" edge="1" parent="1" source="q2-BK6-ns6nN9b0wE0lk-24" target="q2-BK6-ns6nN9b0wE0lk-60">
          <mxGeometry relative="1" as="geometry">
            <Array as="points">
              <mxPoint x="-520" y="530" />
            </Array>
          </mxGeometry>
        </mxCell>
        <mxCell id="q2-BK6-ns6nN9b0wE0lk-24" value="contrata" style="shape=rhombus;perimeter=rhombusPerimeter;whiteSpace=wrap;html=1;align=center;" vertex="1" parent="1">
          <mxGeometry x="-580" y="270" width="120" height="100" as="geometry" />
        </mxCell>
        <mxCell id="q2-BK6-ns6nN9b0wE0lk-35" style="edgeStyle=orthogonalEdgeStyle;rounded=0;orthogonalLoop=1;jettySize=auto;html=1;exitX=1;exitY=0.5;exitDx=0;exitDy=0;" edge="1" parent="1" source="q2-BK6-ns6nN9b0wE0lk-30" target="q2-BK6-ns6nN9b0wE0lk-32">
          <mxGeometry relative="1" as="geometry" />
        </mxCell>
        <mxCell id="q2-BK6-ns6nN9b0wE0lk-30" value="ADMINISTRADOR" style="rounded=0;whiteSpace=wrap;html=1;" vertex="1" parent="1">
          <mxGeometry x="-480" y="110" width="120" height="60" as="geometry" />
        </mxCell>
        <mxCell id="q2-BK6-ns6nN9b0wE0lk-38" style="edgeStyle=orthogonalEdgeStyle;rounded=0;orthogonalLoop=1;jettySize=auto;html=1;exitX=0.5;exitY=1;exitDx=0;exitDy=0;entryX=0.5;entryY=0;entryDx=0;entryDy=0;" edge="1" parent="1" source="q2-BK6-ns6nN9b0wE0lk-32" target="q2-BK6-ns6nN9b0wE0lk-37">
          <mxGeometry relative="1" as="geometry" />
        </mxCell>
        <mxCell id="q2-BK6-ns6nN9b0wE0lk-52" style="edgeStyle=orthogonalEdgeStyle;rounded=0;orthogonalLoop=1;jettySize=auto;html=1;exitX=0.5;exitY=0;exitDx=0;exitDy=0;" edge="1" parent="1" source="q2-BK6-ns6nN9b0wE0lk-32" target="q2-BK6-ns6nN9b0wE0lk-50">
          <mxGeometry relative="1" as="geometry" />
        </mxCell>
        <mxCell id="q2-BK6-ns6nN9b0wE0lk-32" value="PT" style="rounded=0;whiteSpace=wrap;html=1;" vertex="1" parent="1">
          <mxGeometry x="-220" y="110" width="120" height="60" as="geometry" />
        </mxCell>
        <mxCell id="q2-BK6-ns6nN9b0wE0lk-34" style="edgeStyle=orthogonalEdgeStyle;rounded=0;orthogonalLoop=1;jettySize=auto;html=1;exitX=1;exitY=0.5;exitDx=0;exitDy=0;" edge="1" parent="1" source="q2-BK6-ns6nN9b0wE0lk-33" target="q2-BK6-ns6nN9b0wE0lk-24">
          <mxGeometry relative="1" as="geometry" />
        </mxCell>
        <mxCell id="q2-BK6-ns6nN9b0wE0lk-47" style="edgeStyle=orthogonalEdgeStyle;rounded=0;orthogonalLoop=1;jettySize=auto;html=1;exitX=0.25;exitY=1;exitDx=0;exitDy=0;entryX=0.439;entryY=0.007;entryDx=0;entryDy=0;entryPerimeter=0;" edge="1" parent="1" source="q2-BK6-ns6nN9b0wE0lk-33" target="q2-BK6-ns6nN9b0wE0lk-53">
          <mxGeometry relative="1" as="geometry">
            <mxPoint x="-780.5" y="310" as="targetPoint" />
          </mxGeometry>
        </mxCell>
        <mxCell id="q2-BK6-ns6nN9b0wE0lk-49" style="edgeStyle=orthogonalEdgeStyle;rounded=0;orthogonalLoop=1;jettySize=auto;html=1;exitX=0.5;exitY=0;exitDx=0;exitDy=0;" edge="1" parent="1" source="q2-BK6-ns6nN9b0wE0lk-33" target="q2-BK6-ns6nN9b0wE0lk-48">
          <mxGeometry relative="1" as="geometry" />
        </mxCell>
        <mxCell id="q2-BK6-ns6nN9b0wE0lk-55" style="edgeStyle=orthogonalEdgeStyle;rounded=0;orthogonalLoop=1;jettySize=auto;html=1;exitX=0.75;exitY=1;exitDx=0;exitDy=0;" edge="1" parent="1" source="q2-BK6-ns6nN9b0wE0lk-33" target="q2-BK6-ns6nN9b0wE0lk-54">
          <mxGeometry relative="1" as="geometry" />
        </mxCell>
        <mxCell id="q2-BK6-ns6nN9b0wE0lk-33" value="USUARIO" style="rounded=0;whiteSpace=wrap;html=1;" vertex="1" parent="1">
          <mxGeometry x="-810" y="110" width="120" height="60" as="geometry" />
        </mxCell>
        <mxCell id="q2-BK6-ns6nN9b0wE0lk-40" style="edgeStyle=orthogonalEdgeStyle;rounded=0;orthogonalLoop=1;jettySize=auto;html=1;exitX=0.5;exitY=1;exitDx=0;exitDy=0;" edge="1" parent="1" source="q2-BK6-ns6nN9b0wE0lk-37" target="q2-BK6-ns6nN9b0wE0lk-41">
          <mxGeometry relative="1" as="geometry">
            <mxPoint x="-230.5" y="390" as="targetPoint" />
          </mxGeometry>
        </mxCell>
        <mxCell id="q2-BK6-ns6nN9b0wE0lk-43" style="edgeStyle=orthogonalEdgeStyle;rounded=0;orthogonalLoop=1;jettySize=auto;html=1;exitX=0;exitY=1;exitDx=0;exitDy=0;entryX=0.5;entryY=0;entryDx=0;entryDy=0;" edge="1" parent="1" source="q2-BK6-ns6nN9b0wE0lk-37" target="q2-BK6-ns6nN9b0wE0lk-42">
          <mxGeometry relative="1" as="geometry" />
        </mxCell>
        <mxCell id="q2-BK6-ns6nN9b0wE0lk-37" value="RESPUESTA" style="shape=rhombus;perimeter=rhombusPerimeter;whiteSpace=wrap;html=1;align=center;" vertex="1" parent="1">
          <mxGeometry x="-200" y="250" width="120" height="60" as="geometry" />
        </mxCell>
        <mxCell id="q2-BK6-ns6nN9b0wE0lk-45" style="edgeStyle=orthogonalEdgeStyle;rounded=0;orthogonalLoop=1;jettySize=auto;html=1;exitX=0.5;exitY=1;exitDx=0;exitDy=0;entryX=0.25;entryY=1;entryDx=0;entryDy=0;" edge="1" parent="1" source="q2-BK6-ns6nN9b0wE0lk-41">
          <mxGeometry relative="1" as="geometry">
            <mxPoint x="-100.06" y="450" as="sourcePoint" />
            <mxPoint x="-420.06" y="170" as="targetPoint" />
            <Array as="points">
              <mxPoint x="-85" y="450" />
              <mxPoint x="-310" y="450" />
              <mxPoint x="-310" y="200" />
              <mxPoint x="-420" y="200" />
            </Array>
          </mxGeometry>
        </mxCell>
        <mxCell id="q2-BK6-ns6nN9b0wE0lk-41" value="DENEGADO" style="rounded=0;whiteSpace=wrap;html=1;" vertex="1" parent="1">
          <mxGeometry x="-140" y="390" width="110" height="40" as="geometry" />
        </mxCell>
        <mxCell id="q2-BK6-ns6nN9b0wE0lk-42" value="ACEPTADO" style="rounded=0;whiteSpace=wrap;html=1;" vertex="1" parent="1">
          <mxGeometry x="-260" y="390" width="100" height="40" as="geometry" />
        </mxCell>
        <mxCell id="q2-BK6-ns6nN9b0wE0lk-44" style="edgeStyle=orthogonalEdgeStyle;rounded=0;orthogonalLoop=1;jettySize=auto;html=1;exitX=0;exitY=0.5;exitDx=0;exitDy=0;entryX=0.569;entryY=1.046;entryDx=0;entryDy=0;entryPerimeter=0;" edge="1" parent="1" source="q2-BK6-ns6nN9b0wE0lk-42" target="q2-BK6-ns6nN9b0wE0lk-30">
          <mxGeometry relative="1" as="geometry">
            <Array as="points">
              <mxPoint x="-260" y="420" />
              <mxPoint x="-280" y="420" />
              <mxPoint x="-280" y="180" />
              <mxPoint x="-412" y="180" />
            </Array>
          </mxGeometry>
        </mxCell>
        <mxCell id="q2-BK6-ns6nN9b0wE0lk-46" style="edgeStyle=orthogonalEdgeStyle;rounded=0;orthogonalLoop=1;jettySize=auto;html=1;exitX=0;exitY=0.75;exitDx=0;exitDy=0;entryX=0.423;entryY=1.004;entryDx=0;entryDy=0;entryPerimeter=0;" edge="1" parent="1" source="q2-BK6-ns6nN9b0wE0lk-30" target="q2-BK6-ns6nN9b0wE0lk-33">
          <mxGeometry relative="1" as="geometry">
            <Array as="points">
              <mxPoint x="-480" y="190" />
              <mxPoint x="-759" y="190" />
            </Array>
          </mxGeometry>
        </mxCell>
        <mxCell id="q2-BK6-ns6nN9b0wE0lk-48" value="EDITAR PERFIL" style="rounded=0;whiteSpace=wrap;html=1;" vertex="1" parent="1">
          <mxGeometry x="-820" width="120" height="60" as="geometry" />
        </mxCell>
        <mxCell id="q2-BK6-ns6nN9b0wE0lk-50" value="EDITAR PERFIL" style="rounded=0;whiteSpace=wrap;html=1;" vertex="1" parent="1">
          <mxGeometry x="-200" width="120" height="60" as="geometry" />
        </mxCell>
        <mxCell id="q2-BK6-ns6nN9b0wE0lk-53" value="PETICIÓN ACEPTADA" style="rounded=0;whiteSpace=wrap;html=1;" vertex="1" parent="1">
          <mxGeometry x="-830" y="340" width="110" height="40" as="geometry" />
        </mxCell>
        <mxCell id="q2-BK6-ns6nN9b0wE0lk-57" style="edgeStyle=orthogonalEdgeStyle;rounded=0;orthogonalLoop=1;jettySize=auto;html=1;exitX=0.5;exitY=1;exitDx=0;exitDy=0;entryX=0.5;entryY=0;entryDx=0;entryDy=0;" edge="1" parent="1" source="q2-BK6-ns6nN9b0wE0lk-54" target="q2-BK6-ns6nN9b0wE0lk-56">
          <mxGeometry relative="1" as="geometry" />
        </mxCell>
        <mxCell id="q2-BK6-ns6nN9b0wE0lk-54" value="PETICIÓN DENEGADA" style="rounded=0;whiteSpace=wrap;html=1;" vertex="1" parent="1">
          <mxGeometry x="-710" y="340" width="100" height="40" as="geometry" />
        </mxCell>
        <mxCell id="q2-BK6-ns6nN9b0wE0lk-56" value="REPETIR PROCESO BÚSQUEDA" style="rounded=0;whiteSpace=wrap;html=1;" vertex="1" parent="1">
          <mxGeometry x="-690" y="470" width="120" height="60" as="geometry" />
        </mxCell>
        <mxCell id="q2-BK6-ns6nN9b0wE0lk-59" style="edgeStyle=orthogonalEdgeStyle;rounded=0;orthogonalLoop=1;jettySize=auto;html=1;exitX=0.5;exitY=1;exitDx=0;exitDy=0;entryX=0.069;entryY=0.004;entryDx=0;entryDy=0;entryPerimeter=0;" edge="1" parent="1" source="q2-BK6-ns6nN9b0wE0lk-22" target="q2-BK6-ns6nN9b0wE0lk-32">
          <mxGeometry relative="1" as="geometry" />
        </mxCell>
        <mxCell id="q2-BK6-ns6nN9b0wE0lk-62" style="edgeStyle=orthogonalEdgeStyle;rounded=0;orthogonalLoop=1;jettySize=auto;html=1;entryX=0.25;entryY=1;entryDx=0;entryDy=0;" edge="1" parent="1" source="q2-BK6-ns6nN9b0wE0lk-60" target="q2-BK6-ns6nN9b0wE0lk-30">
          <mxGeometry relative="1" as="geometry">
            <Array as="points">
              <mxPoint x="-450" y="210" />
            </Array>
          </mxGeometry>
        </mxCell>
        <mxCell id="q2-BK6-ns6nN9b0wE0lk-60" value="MERCANCIA&lt;br&gt;FECHA&lt;br&gt;DIRECCIÓN&lt;br&gt;DESTINO" style="whiteSpace=wrap;html=1;aspect=fixed;" vertex="1" parent="1">
          <mxGeometry x="-510" y="470" width="80" height="80" as="geometry" />
        </mxCell>
        <mxCell id="q2-BK6-ns6nN9b0wE0lk-78" style="edgeStyle=orthogonalEdgeStyle;rounded=0;orthogonalLoop=1;jettySize=auto;html=1;exitX=0.5;exitY=1;exitDx=0;exitDy=0;entryX=0.5;entryY=0;entryDx=0;entryDy=0;" edge="1" parent="1" source="q2-BK6-ns6nN9b0wE0lk-79" target="q2-BK6-ns6nN9b0wE0lk-84">
          <mxGeometry relative="1" as="geometry" />
        </mxCell>
        <mxCell id="q2-BK6-ns6nN9b0wE0lk-79" value="USUARIO" style="rounded=0;whiteSpace=wrap;html=1;" vertex="1" parent="1">
          <mxGeometry x="90" y="-230" width="120" height="60" as="geometry" />
        </mxCell>
        <mxCell id="q2-BK6-ns6nN9b0wE0lk-80" value="PT" style="rounded=0;whiteSpace=wrap;html=1;" vertex="1" parent="1">
          <mxGeometry x="620" y="-230" width="120" height="60" as="geometry" />
        </mxCell>
        <mxCell id="q2-BK6-ns6nN9b0wE0lk-81" style="edgeStyle=orthogonalEdgeStyle;rounded=0;orthogonalLoop=1;jettySize=auto;html=1;exitX=0.5;exitY=1;exitDx=0;exitDy=0;entryX=0.5;entryY=0;entryDx=0;entryDy=0;" edge="1" parent="1" source="q2-BK6-ns6nN9b0wE0lk-82" target="q2-BK6-ns6nN9b0wE0lk-87">
          <mxGeometry relative="1" as="geometry" />
        </mxCell>
        <mxCell id="q2-BK6-ns6nN9b0wE0lk-82" value="ADMINISTRADOR" style="rounded=0;whiteSpace=wrap;html=1;" vertex="1" parent="1">
          <mxGeometry x="360" y="-160" width="120" height="60" as="geometry" />
        </mxCell>
        <mxCell id="q2-BK6-ns6nN9b0wE0lk-83" style="edgeStyle=orthogonalEdgeStyle;rounded=0;orthogonalLoop=1;jettySize=auto;html=1;exitX=1;exitY=0.5;exitDx=0;exitDy=0;entryX=0;entryY=0.5;entryDx=0;entryDy=0;" edge="1" parent="1" source="q2-BK6-ns6nN9b0wE0lk-84" target="q2-BK6-ns6nN9b0wE0lk-82">
          <mxGeometry relative="1" as="geometry" />
        </mxCell>
        <mxCell id="q2-BK6-ns6nN9b0wE0lk-105" style="edgeStyle=orthogonalEdgeStyle;rounded=0;orthogonalLoop=1;jettySize=auto;html=1;exitX=0;exitY=0.5;exitDx=0;exitDy=0;entryX=1;entryY=0.5;entryDx=0;entryDy=0;" edge="1" parent="1" source="q2-BK6-ns6nN9b0wE0lk-84" target="q2-BK6-ns6nN9b0wE0lk-93">
          <mxGeometry relative="1" as="geometry" />
        </mxCell>
        <mxCell id="q2-BK6-ns6nN9b0wE0lk-106" style="edgeStyle=orthogonalEdgeStyle;rounded=0;orthogonalLoop=1;jettySize=auto;html=1;exitX=0;exitY=0.5;exitDx=0;exitDy=0;entryX=1;entryY=0.5;entryDx=0;entryDy=0;" edge="1" parent="1" source="q2-BK6-ns6nN9b0wE0lk-84" target="q2-BK6-ns6nN9b0wE0lk-95">
          <mxGeometry relative="1" as="geometry" />
        </mxCell>
        <mxCell id="q2-BK6-ns6nN9b0wE0lk-107" style="edgeStyle=orthogonalEdgeStyle;rounded=0;orthogonalLoop=1;jettySize=auto;html=1;exitX=0;exitY=1;exitDx=0;exitDy=0;entryX=1;entryY=0;entryDx=0;entryDy=0;" edge="1" parent="1" source="q2-BK6-ns6nN9b0wE0lk-84" target="q2-BK6-ns6nN9b0wE0lk-94">
          <mxGeometry relative="1" as="geometry" />
        </mxCell>
        <mxCell id="q2-BK6-ns6nN9b0wE0lk-108" style="edgeStyle=orthogonalEdgeStyle;rounded=0;orthogonalLoop=1;jettySize=auto;html=1;exitX=0;exitY=1;exitDx=0;exitDy=0;entryX=1;entryY=0;entryDx=0;entryDy=0;" edge="1" parent="1" source="q2-BK6-ns6nN9b0wE0lk-84" target="q2-BK6-ns6nN9b0wE0lk-98">
          <mxGeometry relative="1" as="geometry" />
        </mxCell>
        <mxCell id="q2-BK6-ns6nN9b0wE0lk-109" style="edgeStyle=orthogonalEdgeStyle;rounded=0;orthogonalLoop=1;jettySize=auto;html=1;exitX=0;exitY=1;exitDx=0;exitDy=0;entryX=1;entryY=0;entryDx=0;entryDy=0;" edge="1" parent="1" source="q2-BK6-ns6nN9b0wE0lk-84" target="q2-BK6-ns6nN9b0wE0lk-100">
          <mxGeometry relative="1" as="geometry" />
        </mxCell>
        <mxCell id="q2-BK6-ns6nN9b0wE0lk-110" style="edgeStyle=orthogonalEdgeStyle;rounded=0;orthogonalLoop=1;jettySize=auto;html=1;exitX=0;exitY=1;exitDx=0;exitDy=0;entryX=0.5;entryY=0;entryDx=0;entryDy=0;" edge="1" parent="1" source="q2-BK6-ns6nN9b0wE0lk-84" target="q2-BK6-ns6nN9b0wE0lk-97">
          <mxGeometry relative="1" as="geometry" />
        </mxCell>
        <mxCell id="q2-BK6-ns6nN9b0wE0lk-111" style="edgeStyle=orthogonalEdgeStyle;rounded=0;orthogonalLoop=1;jettySize=auto;html=1;exitX=0.5;exitY=1;exitDx=0;exitDy=0;" edge="1" parent="1" source="q2-BK6-ns6nN9b0wE0lk-84" target="q2-BK6-ns6nN9b0wE0lk-102">
          <mxGeometry relative="1" as="geometry" />
        </mxCell>
        <mxCell id="q2-BK6-ns6nN9b0wE0lk-112" style="edgeStyle=orthogonalEdgeStyle;rounded=0;orthogonalLoop=1;jettySize=auto;html=1;exitX=1;exitY=1;exitDx=0;exitDy=0;" edge="1" parent="1" source="q2-BK6-ns6nN9b0wE0lk-84" target="q2-BK6-ns6nN9b0wE0lk-103">
          <mxGeometry relative="1" as="geometry" />
        </mxCell>
        <mxCell id="q2-BK6-ns6nN9b0wE0lk-84" value="REGISTRO" style="rhombus;whiteSpace=wrap;html=1;" vertex="1" parent="1">
          <mxGeometry x="110" y="-80" width="80" height="80" as="geometry" />
        </mxCell>
        <mxCell id="q2-BK6-ns6nN9b0wE0lk-85" style="edgeStyle=orthogonalEdgeStyle;rounded=0;orthogonalLoop=1;jettySize=auto;html=1;exitX=0.5;exitY=1;exitDx=0;exitDy=0;entryX=1;entryY=0.75;entryDx=0;entryDy=0;" edge="1" parent="1" source="q2-BK6-ns6nN9b0wE0lk-87" target="q2-BK6-ns6nN9b0wE0lk-88">
          <mxGeometry relative="1" as="geometry" />
        </mxCell>
        <mxCell id="q2-BK6-ns6nN9b0wE0lk-86" style="edgeStyle=orthogonalEdgeStyle;rounded=0;orthogonalLoop=1;jettySize=auto;html=1;exitX=0.5;exitY=1;exitDx=0;exitDy=0;entryX=0;entryY=0.75;entryDx=0;entryDy=0;" edge="1" parent="1" source="q2-BK6-ns6nN9b0wE0lk-87" target="q2-BK6-ns6nN9b0wE0lk-89">
          <mxGeometry relative="1" as="geometry" />
        </mxCell>
        <mxCell id="q2-BK6-ns6nN9b0wE0lk-87" value="AUTENTICACIÖN" style="rounded=0;whiteSpace=wrap;html=1;" vertex="1" parent="1">
          <mxGeometry x="360" y="-70" width="120" height="60" as="geometry" />
        </mxCell>
        <mxCell id="q2-BK6-ns6nN9b0wE0lk-88" value="ACEPTADO" style="whiteSpace=wrap;html=1;align=center;" vertex="1" parent="1">
          <mxGeometry x="250" width="80" height="30" as="geometry" />
        </mxCell>
        <mxCell id="q2-BK6-ns6nN9b0wE0lk-89" value="DENEGADO" style="whiteSpace=wrap;html=1;align=center;" vertex="1" parent="1">
          <mxGeometry x="510" width="90" height="30" as="geometry" />
        </mxCell>
        <mxCell id="q2-BK6-ns6nN9b0wE0lk-90" style="edgeStyle=orthogonalEdgeStyle;rounded=0;orthogonalLoop=1;jettySize=auto;html=1;exitX=0;exitY=0.5;exitDx=0;exitDy=0;entryX=1;entryY=0.5;entryDx=0;entryDy=0;" edge="1" parent="1" source="q2-BK6-ns6nN9b0wE0lk-91" target="q2-BK6-ns6nN9b0wE0lk-82">
          <mxGeometry relative="1" as="geometry" />
        </mxCell>
        <mxCell id="q2-BK6-ns6nN9b0wE0lk-126" style="edgeStyle=orthogonalEdgeStyle;rounded=0;orthogonalLoop=1;jettySize=auto;html=1;exitX=0;exitY=1;exitDx=0;exitDy=0;entryX=0.5;entryY=0;entryDx=0;entryDy=0;" edge="1" parent="1" source="q2-BK6-ns6nN9b0wE0lk-91" target="q2-BK6-ns6nN9b0wE0lk-124">
          <mxGeometry relative="1" as="geometry" />
        </mxCell>
        <mxCell id="q2-BK6-ns6nN9b0wE0lk-91" value="REGISTRO" style="rhombus;whiteSpace=wrap;html=1;" vertex="1" parent="1">
          <mxGeometry x="640" y="-80" width="80" height="80" as="geometry" />
        </mxCell>
        <mxCell id="q2-BK6-ns6nN9b0wE0lk-92" style="edgeStyle=orthogonalEdgeStyle;rounded=0;orthogonalLoop=1;jettySize=auto;html=1;exitX=0.5;exitY=1;exitDx=0;exitDy=0;entryX=0.379;entryY=0.161;entryDx=0;entryDy=0;entryPerimeter=0;" edge="1" parent="1" source="q2-BK6-ns6nN9b0wE0lk-80" target="q2-BK6-ns6nN9b0wE0lk-91">
          <mxGeometry relative="1" as="geometry" />
        </mxCell>
        <mxCell id="q2-BK6-ns6nN9b0wE0lk-93" value="&lt;font style=&quot;font-size: 9px;&quot;&gt;NOMBRE&lt;/font&gt;" style="ellipse;whiteSpace=wrap;html=1;" vertex="1" parent="1">
          <mxGeometry x="20" y="-90" width="50" height="30" as="geometry" />
        </mxCell>
        <mxCell id="q2-BK6-ns6nN9b0wE0lk-94" value="&lt;font style=&quot;font-size: 9px;&quot;&gt;DIRECCIÓN&lt;/font&gt;" style="ellipse;whiteSpace=wrap;html=1;" vertex="1" parent="1">
          <mxGeometry x="20" y="-30" width="50" height="30" as="geometry" />
        </mxCell>
        <mxCell id="q2-BK6-ns6nN9b0wE0lk-95" value="&lt;font style=&quot;font-size: 9px;&quot;&gt;APELLIDO&lt;/font&gt;" style="ellipse;whiteSpace=wrap;html=1;" vertex="1" parent="1">
          <mxGeometry x="20" y="-60" width="50" height="30" as="geometry" />
        </mxCell>
        <mxCell id="q2-BK6-ns6nN9b0wE0lk-96" value="&lt;font style=&quot;font-size: 9px;&quot;&gt;ID&lt;/font&gt;" style="ellipse;whiteSpace=wrap;html=1;" vertex="1" parent="1">
          <mxGeometry x="30" y="-120" width="50" height="30" as="geometry" />
        </mxCell>
        <mxCell id="q2-BK6-ns6nN9b0wE0lk-97" value="&lt;font style=&quot;font-size: 9px;&quot;&gt;EMAIL&lt;/font&gt;" style="ellipse;whiteSpace=wrap;html=1;" vertex="1" parent="1">
          <mxGeometry x="90" y="30" width="50" height="30" as="geometry" />
        </mxCell>
        <mxCell id="q2-BK6-ns6nN9b0wE0lk-98" value="&lt;font style=&quot;font-size: 9px;&quot;&gt;TELÉFONO&lt;/font&gt;" style="ellipse;whiteSpace=wrap;html=1;" vertex="1" parent="1">
          <mxGeometry x="30" width="50" height="30" as="geometry" />
        </mxCell>
        <mxCell id="q2-BK6-ns6nN9b0wE0lk-100" value="&lt;font style=&quot;font-size: 8px;&quot;&gt;LOCALIDAD&lt;/font&gt;" style="ellipse;whiteSpace=wrap;html=1;" vertex="1" parent="1">
          <mxGeometry x="50" y="20" width="50" height="30" as="geometry" />
        </mxCell>
        <mxCell id="q2-BK6-ns6nN9b0wE0lk-102" value="&lt;font style=&quot;font-size: 7px;&quot;&gt;MERCANCÍA&lt;/font&gt;" style="ellipse;whiteSpace=wrap;html=1;" vertex="1" parent="1">
          <mxGeometry x="125" y="30" width="50" height="30" as="geometry" />
        </mxCell>
        <mxCell id="q2-BK6-ns6nN9b0wE0lk-103" value="&lt;font style=&quot;font-size: 8px;&quot;&gt;CONTRASEÑA&lt;/font&gt;" style="ellipse;whiteSpace=wrap;html=1;" vertex="1" parent="1">
          <mxGeometry x="170" y="30" width="50" height="30" as="geometry" />
        </mxCell>
        <mxCell id="q2-BK6-ns6nN9b0wE0lk-104" style="edgeStyle=orthogonalEdgeStyle;rounded=0;orthogonalLoop=1;jettySize=auto;html=1;exitX=0;exitY=0;exitDx=0;exitDy=0;entryX=1.008;entryY=0.745;entryDx=0;entryDy=0;entryPerimeter=0;" edge="1" parent="1" source="q2-BK6-ns6nN9b0wE0lk-84" target="q2-BK6-ns6nN9b0wE0lk-96">
          <mxGeometry relative="1" as="geometry" />
        </mxCell>
        <mxCell id="q2-BK6-ns6nN9b0wE0lk-116" value="&lt;font style=&quot;font-size: 9px;&quot;&gt;EMAIL&lt;/font&gt;" style="ellipse;whiteSpace=wrap;html=1;" vertex="1" parent="1">
          <mxGeometry x="690" y="30" width="50" height="30" as="geometry" />
        </mxCell>
        <mxCell id="q2-BK6-ns6nN9b0wE0lk-117" value="&lt;font style=&quot;font-size: 8px;&quot;&gt;VEHICULO&lt;/font&gt;" style="ellipse;whiteSpace=wrap;html=1;" vertex="1" parent="1">
          <mxGeometry x="650" y="40" width="50" height="30" as="geometry" />
        </mxCell>
        <mxCell id="q2-BK6-ns6nN9b0wE0lk-118" value="&lt;font style=&quot;font-size: 7px;&quot;&gt;CARNET&lt;/font&gt;" style="ellipse;whiteSpace=wrap;html=1;" vertex="1" parent="1">
          <mxGeometry x="740" y="25" width="50" height="30" as="geometry" />
        </mxCell>
        <mxCell id="q2-BK6-ns6nN9b0wE0lk-119" value="&lt;font style=&quot;font-size: 9px;&quot;&gt;NOMBRE&lt;/font&gt;" style="ellipse;whiteSpace=wrap;html=1;" vertex="1" parent="1">
          <mxGeometry x="740" y="-90" width="50" height="30" as="geometry" />
        </mxCell>
        <mxCell id="q2-BK6-ns6nN9b0wE0lk-120" value="&lt;font style=&quot;font-size: 9px;&quot;&gt;DIRECCIÓN&lt;/font&gt;" style="ellipse;whiteSpace=wrap;html=1;" vertex="1" parent="1">
          <mxGeometry x="740" y="-30" width="50" height="30" as="geometry" />
        </mxCell>
        <mxCell id="q2-BK6-ns6nN9b0wE0lk-121" value="&lt;font style=&quot;font-size: 9px;&quot;&gt;APELLIDO&lt;/font&gt;" style="ellipse;whiteSpace=wrap;html=1;" vertex="1" parent="1">
          <mxGeometry x="740" y="-60" width="50" height="30" as="geometry" />
        </mxCell>
        <mxCell id="q2-BK6-ns6nN9b0wE0lk-122" value="&lt;font style=&quot;font-size: 9px;&quot;&gt;ID&lt;/font&gt;" style="ellipse;whiteSpace=wrap;html=1;" vertex="1" parent="1">
          <mxGeometry x="750" y="-120" width="50" height="30" as="geometry" />
        </mxCell>
        <mxCell id="q2-BK6-ns6nN9b0wE0lk-123" value="&lt;font style=&quot;font-size: 9px;&quot;&gt;TELÉFONO&lt;/font&gt;" style="ellipse;whiteSpace=wrap;html=1;" vertex="1" parent="1">
          <mxGeometry x="750" width="50" height="30" as="geometry" />
        </mxCell>
        <mxCell id="q2-BK6-ns6nN9b0wE0lk-124" value="&lt;font style=&quot;font-size: 7px;&quot;&gt;DISPONIBILIDAD&lt;/font&gt;" style="ellipse;whiteSpace=wrap;html=1;" vertex="1" parent="1">
          <mxGeometry x="610" y="25" width="60" height="30" as="geometry" />
        </mxCell>
      </root>
    </mxGraphModel>
  </diagram>
</mxfile>
